<svg xmlns="http://www.w3.org/2000/svg" width="360" viewBox="0 0 934 164" role="img" aria-label="Riffle">
  <path fill="#f1f2f6" d="M120.321 0.279359C120.661 0.251859 121.001 0.233858 121.342 0.225358C130.69 0.0278585 140.067 0.167861 149.419 0.141611C155.692 0.124111 162.153 -0.202891 168.407 0.200609C169.27 0.256359 170.826 0.258362 171.477 0.913362C172.049 1.48911 172.401 2.50161 172.35 3.31061C172.184 5.93986 163.864 12.3554 161.742 14.3206C158.456 17.3626 140.998 33.5054 138.458 34.5949C135.316 35.9424 128.896 35.2936 125.355 35.2716L106.651 35.2589C103.955 35.2354 93.7798 34.6211 91.0908 36.1509C89.5468 37.0294 90.7328 39.8296 92.1823 41.1469C99.1085 47.4409 106.122 53.6736 113.058 59.9959L164.712 107.154C169.937 111.985 175.521 116.54 180.628 121.528C186.189 126.96 183.133 128.82 176.784 128.744L145.981 128.758C143.334 128.753 130.956 129.153 129.262 127.976C125.868 125.618 120.855 120.763 117.65 117.856L92.0985 94.5806L47.8405 54.3121C43.1643 50.0279 38.3848 45.8561 33.651 41.6396C31.8083 39.9981 30.9123 38.0276 32.3513 35.7851C33.1808 35.2581 35.2353 35.0336 36.2188 35.0224C50.6815 34.8569 65.237 35.2694 79.692 34.8741C81.7295 33.8244 90.0975 25.7429 92.1493 23.8684C97.3563 19.2056 102.56 14.4104 107.832 9.83361C111.043 7.04611 116.237 1.00936 120.321 0.279359Z" />
  <path fill="#f1f2f6" d="M172.732 35.0182C174.867 34.8242 178.407 34.9542 180.663 34.9612L194.603 34.9637L211.562 34.9557C215.218 34.9557 219.725 34.8247 223.288 35.369C225.813 35.7545 230.001 40.4595 232.051 42.2982L252.528 60.8652L296.46 100.853C303.79 107.553 311.25 114.225 318.61 120.899C319.145 121.384 320.33 122.4 320.73 122.91C327.075 131 312.715 128.753 308.938 128.744L285.895 128.698C283.815 128.695 275.643 128.504 274.108 128.884C271.663 129.489 262.71 138.272 260.548 140.248L243.742 155.402C241.722 157.235 237.365 161.398 235.416 162.678C233.073 163.988 222.98 163.544 219.899 163.541L198.964 163.575C196.07 163.57 184.465 164.051 182.421 162.998C181.373 161.958 181.028 159.459 182.162 158.294C187.704 152.595 191.16 149.829 197.405 144.251C201.616 140.49 210.352 132.21 215.33 128.668C226.668 127.977 238.448 128.624 249.877 128.424C253.698 128.357 257.548 128.703 261.305 127.991C263.158 127.633 264.063 125.396 262.903 124.202C256.44 117.538 248.237 110.632 241.464 104.447C228.619 92.6177 215.711 80.857 202.74 69.1657L184.261 52.3775C180.353 48.8492 176.433 45.3655 172.577 41.7775C170.284 39.6435 168.258 36.05 172.732 35.0182Z" />
  <path fill="#f1f2f6" d="M455.688 150L431.304 96.2397H411.528V150H392.328V15.5997H442.248C461.448 15.5997 476.808 30.9597 476.808 50.1597V61.6797C476.808 77.6157 466.248 90.8637 451.656 94.8957L476.808 150H455.688ZM411.528 77.0397H442.248C450.888 77.0397 457.608 70.3197 457.608 61.6797V50.1597C457.608 41.5197 450.888 34.7997 442.248 34.7997H411.528V77.0397Z" />
  <path fill="#f1f2f6" d="M491.417 150V130.8H523.097V71.2797H491.417V52.0797H542.297V130.8H573.977V150H491.417ZM520.217 34.7997V13.6797H542.297V34.7997H520.217Z" />
  <path fill="#f1f2f6" d="M594.099 48.2397C594.099 29.0397 609.459 13.6797 628.659 13.6797H646.899V32.8797H628.659C620.019 32.8797 613.299 39.5997 613.299 48.2397V57.8397H646.899V77.0397H613.299V150H594.099V77.0397H568.179V57.8397H594.099V48.2397Z" />
  <path fill="#f1f2f6" d="M678.662 48.2397C678.662 29.0397 694.022 13.6797 713.222 13.6797H731.462V32.8797H713.222C704.582 32.8797 697.862 39.5997 697.862 48.2397V57.8397H731.462V77.0397H697.862V150H678.662V77.0397H652.742V57.8397H678.662V48.2397Z" />
  <path fill="#f1f2f6" d="M726.447 150V130.8H758.127V32.8797H726.447V13.6797H777.327V130.8H810.927V150H726.447Z" />
  <path fill="#f1f2f6" d="M852.441 150C833.433 150 817.881 134.256 817.881 115.248V86.6397C817.881 67.4397 833.433 52.0797 852.441 52.0797H867.801C886.425 52.0797 901.401 66.4797 902.361 84.7197V105.456H837.081V115.248C837.081 123.696 843.993 130.608 852.441 130.608H867.801C876.249 130.608 883.161 123.696 883.161 115.248V113.328H902.361V115.248C902.361 134.256 887.001 150 867.801 150H852.441ZM837.081 90.0957H883.161V86.6397C883.161 77.9997 876.441 71.2797 867.801 71.2797H852.441C843.801 71.2797 837.081 78.1917 837.081 86.6397V90.0957Z" />
</svg>
